# ProBuilder 5.2.3
# https://unity3d.com/unity/features/worldbuilding/probuilder
# 11/11/2024 4:31:48 AM

mtllib ./cone.mtl
o cone

g Cone
v -1 0 0.5
v -0.25 0 0.9330127
v -0.5 1 0.5
v -0.5 0 0.5
v -0.2500001 0 0.06698728

vt 0 0
vt 1.732051 0
vt 0.8660254 1.118034
vt -1 0.5
vt -0.25 0.9330127
vt -0.5 0.5
vt -0.2500001 0.06698728

vn -0.8944272 0.4472136 0
vn 0.4472136 0.4472136 0.7745966
vn -1.228781E-07 1 -1.638375E-07
vn 0 -1 0
vn 0.4472135 0.4472136 -0.7745968

usemtl ProBuilderDefault
f 1/1/1 2/2/2 3/3/3
f 4/6/4 2/5/4 1/4/4
f 2/1/2 5/2/5 3/3/3
f 4/6/4 5/7/4 2/5/4
f 5/1/5 1/2/1 3/3/3
f 4/6/4 1/4/4 5/7/4

